<svg viewBox="0 0 300 300"><path d="M194.174.603C182.728-.602 112.95.302 106.625.804 52.811 5.222 15.562 36.647 3.916 87.55 1.105 100.2 0 117.368 0 149.396c0 41.967 1.607 57.228 8.133 76.304 10.542 31.024 34.537 55.02 65.561 65.561 19.076 6.526 34.337 8.133 76.304 8.133s57.228-1.607 76.304-8.133c31.024-10.542 55.02-34.537 65.561-65.561 6.526-19.076 8.133-34.337 8.133-76.304 0-49.397-2.912-68.674-13.956-90.36C268.872 25.402 236.944 5.021 194.174.603M215.76 62.55c10.179 0 21.084 11.91 21.084 22.088v129.516c0 10.412-11.676 22.088-22.088 22.088H86.244c-10.277 0-20.984-12.313-20.984-22.59 0-24.895-2.41-120.48 0-128.512 3.314-11.044 10.844-18.875 21.486-22.188 1.406-.402 31.024-.703 65.762-.603 0 0 46.847.201 63.252.201"/><path d="M87.047 127.81c-5.12 5.12-9.337 9.84-9.337 10.341 0 1.707 27.51 27.71 33.433 31.626 7.129 4.82 17.37 9.438 23.594 10.843 7.63 1.808 22.992 2.21 28.213.904 18.373-4.719 27.61-10.442 46.585-29.016l14.86-14.558-9.84-9.839c-5.421-5.421-10.14-9.839-10.441-9.839-.402 0-5.422 4.719-11.245 10.442-17.67 17.47-23.795 21.686-35.542 24.096-5.823 1.305-7.831 1.305-13.353.1-10.944-2.31-16.265-5.823-31.726-20.883-7.832-7.53-14.558-13.755-15.06-13.755-.502.1-5.12 4.317-10.14 9.538"/></svg>